<svg xmlns="http://www.w3.org/2000/svg" viewBox="0 0 24 24" fill="currentColor" class="size-6" width="24" height="24"><path fill-rule="evenodd" d="M12 2.25a0.75 0.75 0 0 1 0.75 0.75v0.756a48.994 48.994 0 0 1 9.152 1.001 0.75 0.75 0 0 1 -0.152 1.485h-1.918L22.305 16.365a0.75 0.75 0 0 1 -0.375 0.84A6.699 6.699 0 0 1 18.75 18a6.699 6.699 0 0 1 -3.181 -0.795 0.75 0.75 0 0 1 -0.375 -0.84l2.474 -10.123H12.75v13.279a12.75 12.75 0 0 1 3.697 0.776 0.75 0.75 0 0 1 -0.262 1.454H7.815a0.75 0.75 0 0 1 -0.262 -1.454A12.75 12.75 0 0 1 11.25 19.521V6.24H6.332L8.805 16.364a0.75 0.75 0 0 1 -0.375 0.84A6.699 6.699 0 0 1 5.25 18a6.699 6.699 0 0 1 -3.181 -0.795 0.75 0.75 0 0 1 -0.375 -0.84l2.475 -10.123H2.25a0.75 0.75 0 0 1 -0.152 -1.485A48.994 48.994 0 0 1 11.25 3.756V3a0.75 0.75 0 0 1 0.75 -0.75m4.878 13.543L18.75 8.132l1.872 7.662zm-9.756 0L5.25 8.132l-1.872 7.662z" clip-rule="evenodd"/></svg>